P1
# Imagen: 
8 8
00001111
00001111
00001111
00001111
11110000
11110000
11110000
11110000
