P1
# Imagen: 
64 64
0000000000000000000000000000000000000000000000000000000000000000
0000000000000000000000000000000000000000000000000000000000000000
0000000000000000000000000000000000000000000000000000000000000000
0000000000000000000000000000000000000000000000000000000000000000
0000000000000000000000000000001001000000000000000000000000000000
0000000000000000000000000001111111110000000000000000000000000000
0000000000000000000000000001111111111000000000000000000000000000
0000000000000000000000000111111111111100000000000000000000000000
0000000000000000000000000111111111111110000000000000000000000000
0000000000000000000000011111111111111111000000000000000000000000
0000000000000000000000011111111111111111100000000000000000000000
0000000000000000000001111111111111111111110000000000000000000000
0000000000000000000001111111111111111111111000000000000000000000
0000000000000000000111111111110001111111111100000000000000000000
0000000000000000000111111111100110111111111110000000000000000000
0000000000000000011111111111101111011111111111000001001000000000
0000000000000000011111111110011111001111111111101111111100000000
0000000000000001111111111110111111110111111111110111111100000000
0000000000000001111111111001111111111011111111111111111100000000
0000000000000011111111111011111111111101111111111111111100000000
0000000000000111111111100111111111111100111111111111111100000000
0000000000001111111111101111111111111111011111111111111100000000
0000000000011111111110011111111111111111001111111111111100000000
0000000000111111111110111111111111111111110111111111111100000000
0000000001111111111001111111111111111111110011111111111100000000
0000000011111111111011111111111111111111111101111111111100000000
0000000111111111100111111111111111111111111100111111111110000000
0000001111111111101111111111111111111111111111011111111111000000
0000011111111110011111111111111111111111111111001111111111000000
0000111111111110111111111111111111111111111111110111111111110000
0001111111111001111111111111111111111111111111110011111111110000
0011111111111011111111111111111111111111111111111101111111111100
0111111111110111111111111111111111111111111111111100111111111100
1111111111001111111111111111111111111111111111111111011111111111
1111111111011111111111111111111111111111111111111111001111111111
1111111100111111111111111111111111111111111111111111110111111111
1111111101111111111111111111111111111111111111111111110011111111
1111110011111111111111111111111111111111111111111111111101111111
0000000111111111111111111111111111111111111111111111111100000000
0000000111111111111111111111111111111111111111111111111100000000
0000000111111111111111111111111111111111111111111111111100000000
0000000111111111111111111111111111111111111111111111111100000000
0000000111111111111111111111111111111111111111111111111100000000
0000000111111111111111111111111111111111111111111111111100000000
0000000111111111110111011111111111111111011011011111111100000000
0000000111111111000000001111111111111110000000001111111100000000
0000000111111111100010001111111111111110000000011111111100000000
0000000111111111000000001111111111111110000000001111111100000000
0000000111111111111111111111111111111110000000011111111100000000
0000000111111111000000001111111111111110000000001111111100000000
0000000111111111100010001111111111111110000000011111111100000000
0000000111111111000000001111111111111110000000001111111100000000
0000000111111111111111111111111111111110000000011111111100000000
0000000111111111111111111111111111111110000000001111111100000000
0000000111111111111111111111111111111110000000011111111100000000
0000000111111111111111111111111111111110000000001111111100000000
0000000111111111111111111111111111111110000000011111111100000000
0000000111111111111111111111111111111110000000001111111100000000
0000000111111111111111111111111111111110000000011111111100000000
0000000001010010010100101001010010010000000000001001001000000000
0000000000000000000000000000000000000000000000000000000000000000
0000000000000000000000000000000000000000000000000000000000000000
0000000000000000000000000000000000000000000000000000000000000000
0000000000000000000000000000000000000000000000000000000000000000
